<?xml version="1.0" encoding="utf-8"?>
<svg xmlns="http://www.w3.org/2000/svg" viewBox="2 2 20 20" width="20px" height="20px">
  <path d="M 12 18.192 C 15.416 18.192 18.192 15.416 18.192 12 C 18.192 8.584 15.416 5.808 12 5.808 C 8.584 5.808 5.808 8.584 5.808 12 C 5.808 15.416 8.584 18.192 12 18.192 Z M 12 22 C 17.524 22 22 17.524 22 12 C 22 6.476 17.524 2 12 2 C 6.476 2 2 6.476 2 12 C 2 17.524 6.476 22 12 22 Z" style="stroke-width: 0px; fill: rgb(238, 238, 238);"/>
  <path d="M 18 12 C 18 13.624 17.303 15.182 16.242 16.242 C 15.183 17.303 13.625 18 12 18 C 10.376 18 8.818 17.303 7.758 16.242 C 6.698 15.182 6 13.624 6 12 C 6 10.376 6.698 8.818 7.758 7.758 C 8.818 6.697 10.376 6 12 6 C 13.625 6 15.183 6.697 16.242 7.758 C 17.303 8.818 18 10.376 18 12 Z" style="fill: rgb(0, 0, 0); stroke-width: 0px;"/>
</svg>